#!OML:ASF I:\Random Stuff\random\construction\7_22_03\Session 2\subj1.ASF
:FULLY-SPECIFIED
:DEGREES
797
root -8.3418 17.5779 -5.83837 -318.952 117.682 -335.085
lowerback 15.0799 1.50767 -4.96672
upperback 7.59179 2.16022 -8.08447
thorax -0.182715 1.49779 -6.09114
lowerneck -21.3291 -4.224 -0.586576
upperneck 44.6245 -8.25047 11.4022
head 24.1188 -0.860115 4.85019
rclavicle 6.36111e-014 -2.54444e-014
rhumerus -8.73813 64.0172 -58.8775
rradius 76.2041
rwrist -47.9206
rhand -24.4672 -8.07172
rfingers 7.12502
rthumb 2.02614 -38.0418
lclavicle 6.36111e-014 -2.54444e-014
lhumerus 55.0004 -74.6178 36.8215
lradius 42.3004
lwrist -12.831
lhand -23.1721 61.0711
lfingers 7.12502
lthumb 3.27691 268.974
rfemur -11.5163 -5.28425 26.1721
rtibia 1.59028e-014
rfoot -2.84709 -10.1968
rtoes -25.533
lfemur -40.189 -9.92582 0.167037
ltibia 37.3618
lfoot -16.2659 -4.72498
ltoes -31.8492
798
root -8.33781 17.5735 -5.84247 -318.852 117.694 -334.964
lowerback 15.0729 1.51714 -4.94122
upperback 7.61739 2.1819 -8.0883
thorax -0.148972 1.51044 -6.11212
lowerneck -21.3434 -4.27194 -0.588009
upperneck 44.6444 -8.31558 11.3613
head 24.15 -0.889679 4.81257
rclavicle 2.54444e-014 -2.54444e-014
rhumerus -8.99094 63.3254 -59.0866
rradius 76.02
rwrist -49.2953
rhand -23.3043 -7.77223
rfingers 7.12502
rthumb 3.14927 -37.7287
lclavicle 2.54444e-014 -2.54444e-014
lhumerus 55.3272 -74.5999 36.4821
lradius 42.3169
lwrist -13.0108
lhand -23.0655 61.1863
lfingers 7.12502
lthumb 3.37986 268.861
rfemur -11.4807 -5.25747 26.2172
rtibia 3.57812e-014
rfoot -2.86532 -10.2174
rtoes -25.3595
lfemur -40.1979 -9.94192 0.223777
ltibia 37.445
lfoot -16.2948 -4.71152
ltoes -31.5471
799
root -8.33496 17.573 -5.84722 -318.831 117.667 -334.947
lowerback 15.03 1.50986 -5.03291
upperback 7.64688 2.1696 -8.06751
thorax -0.0988266 1.5017 -6.03232
lowerneck -21.357 -4.28758 -0.636131
upperneck 44.6447 -8.29297 11.2712
head 24.138 -0.904682 4.77128
rclavicle -3.18055e-015 -9.85972e-014
rhumerus -9.16149 63.2893 -59.1878
rradius 75.7467
rwrist -47.9343
rhand -23.3339 -7.60735
rfingers 7.12502
rthumb 3.12063 -37.5643
lclavicle -3.18055e-015 -9.85972e-014
lhumerus 55.0925 -74.51 36.7542
lradius 42.2756
lwrist -13.1211
lhand -23.0171 61.2124
lfingers 7.12502
lthumb 3.42661 268.835
rfemur -11.4675 -5.23354 26.1931
rtibia 2.22639e-014
rfoot -2.87706 -10.2343
rtoes -25.5046
lfemur -40.2097 -9.94868 0.210479
ltibia 37.5199
lfoot -16.3264 -4.73895
ltoes -30.9739
800
root -8.33174 17.574 -5.85257 -318.805 117.59 -334.924
lowerback 14.9875 1.52794 -5.16588
upperback 7.68499 2.1859 -8.02146
thorax -0.039892 1.50508 -5.90573
lowerneck -21.4264 -4.30331 -0.805004
upperneck 44.6408 -8.25191 11.2633
head 24.1714 -0.925753 4.81253
rclavicle 7.31528e-014 -4.77083e-014
rhumerus -9.22723 63.2838 -59.0965
rradius 75.4872
rwrist -47.3537
rhand -23.3103 -7.26164
rfingers 7.12502
rthumb 3.14348 -37.2182
lclavicle 7.31528e-014 -4.77083e-014
lhumerus 54.7455 -74.3908 37.2142
lradius 42.2279
lwrist -13.2015
lhand -22.9726 61.1752
lfingers 7.12502
lthumb 3.46955 268.873
rfemur -11.4613 -5.17175 26.1377
rtibia 4.77083e-015
rfoot -2.87563 -10.2327
rtoes -25.6852
lfemur -40.1883 -9.83346 0.122539
ltibia 37.5803
lfoot -16.3457 -4.82466
ltoes -30.6819
801
root -8.32858 17.5731 -5.85611 -318.717 117.517 -334.825
lowerback 14.9429 1.58193 -5.2606
upperback 7.73852 2.25714 -7.96598
thorax 0.0408135 1.53687 -5.79844
lowerneck -21.5307 -4.32057 -0.936975
upperneck 44.6343 -8.23895 11.2788
head 24.2245 -0.945444 4.85506
rclavicle -5.725e-014 8.90555e-014
rhumerus -9.26532 63.215 -58.8936
rradius 75.4568
rwrist -48.2664
rhand -23.0745 -6.83983
rfingers 7.12502
rthumb 3.37115 -36.7929
lclavicle -5.725e-014 8.90555e-014
lhumerus 54.8912 -74.3193 37.2294
lradius 42.1764
lwrist -13.1875
lhand -22.9435 61.2008
lfingers 7.12502
lthumb 3.49765 268.848
rfemur -11.4558 -5.08707 26.1196
rtibia 1.98785e-014
rfoot -2.8483 -10.2298
rtoes -25.5495
lfemur -40.1541 -9.70923 0.0745604
ltibia 37.6264
lfoot -16.3636 -4.86013
ltoes -30.8489
802
root -8.32583 17.5716 -5.85829 -318.585 117.447 -334.674
lowerback 14.9275 1.65295 -5.30161
upperback 7.76014 2.34947 -7.93233
thorax 0.075373 1.5807 -5.75091
lowerneck -21.5782 -4.29858 -0.917812
upperneck 44.6285 -8.18992 11.2202
head 24.2163 -0.930637 4.82732
rclavicle 2.22639e-014 5.40694e-014
rhumerus -9.52202 63.5409 -58.8329
rradius 75.6476
rwrist -48.3089
rhand -23.6511 -6.39742
rfingers 7.12502
rthumb 2.81429 -36.3586
lclavicle 2.22639e-014 5.40694e-014
lhumerus 55.1767 -74.3438 37.0917
lradius 42.1205
lwrist -13.1728
lhand -22.8801 61.2771
lfingers 7.12502
lthumb 3.55884 268.773
rfemur -11.4472 -4.98658 26.1287
rtibia -3.4191e-014
rfoot -2.81707 -10.235
rtoes -25.7586
lfemur -40.1112 -9.64723 0.0844143
ltibia 37.6552
lfoot -16.3804 -4.82371
ltoes -30.9514
803
root -8.32269 17.5694 -5.86009 -318.447 117.363 -334.532
lowerback 14.9414 1.70188 -5.3282
upperback 7.73554 2.40344 -7.92552
thorax 0.0439437 1.60551 -5.73789
lowerneck -21.5962 -4.21885 -0.874416
upperneck 44.6705 -8.04604 11.174
head 24.2267 -0.873497 4.83508
rclavicle -3.49861e-014 4.77083e-014
rhumerus -9.78283 63.9446 -58.8369
rradius 75.7474
rwrist -47.4769
rhand -24.0703 -5.81227
rfingers 7.12502
rthumb 2.40946 -35.7784
lclavicle -3.49861e-014 4.77083e-014
lhumerus 55.0724 -74.3712 37.249
lradius 42.0999
lwrist -13.177
lhand -22.8382 61.2204
lfingers 7.12502
lthumb 3.5993 268.83
rfemur -11.4515 -4.87708 26.1285
rtibia 6.36111e-015
rfoot -2.78139 -10.2405
rtoes -26.154
lfemur -40.0705 -9.55283 0.0725081
ltibia 37.6649
lfoot -16.3882 -4.77529
ltoes -31.1565
804
root -8.32023 17.5677 -5.86157 -318.365 117.253 -334.475
lowerback 14.9239 1.71983 -5.44905
upperback 7.70618 2.40689 -7.91644
thorax 0.017932 1.602 -5.65991
lowerneck -21.5969 -4.13064 -0.8936
upperneck 44.7716 -7.87027 11.1821
head 24.3021 -0.810099 4.90907
rclavicle 6.04305e-014 -8.26944e-014
rhumerus -9.8142 64.4152 -58.7264
rradius 75.6472
rwrist -46.1338
rhand -24.3595 -5.0384
rfingers 7.12502
rthumb 2.13015 -35.0075
lclavicle 6.04305e-014 -8.26944e-014
lhumerus 54.4741 -74.3056 37.8403
lradius 42.1073
lwrist -13.0937
lhand -22.9187 61.1339
lfingers 7.12502
lthumb 3.52164 268.915
rfemur -11.4816 -4.77268 26.0781
rtibia 2.06736e-014
rfoot -2.74902 -10.244
rtoes -26.2581
lfemur -40.044 -9.42928 -0.00373403
ltibia 37.6561
lfoot -16.3891 -4.73308
ltoes -31.5522
805
root -8.31935 17.5678 -5.86303 -318.336 117.105 -334.471
lowerback 14.909 1.74793 -5.61186
upperback 7.6851 2.42109 -7.91398
thorax -0.00051686 1.60373 -5.56705
lowerneck -21.6026 -4.10326 -0.964261
upperneck 44.8671 -7.77427 11.1833
head 24.3936 -0.787785 4.96851
rclavicle 4.13472e-014 2.22639e-014
rhumerus -9.78689 64.8719 -58.5855
rradius 75.5302
rwrist -44.6296
rhand -24.4195 -4.50558
rfingers 7.12502
rthumb 2.0722 -34.4753
lclavicle 4.13472e-014 2.22639e-014
lhumerus 53.7521 -74.235 38.5464
lradius 42.1503
lwrist -12.8299
lhand -23.0913 61.0224
lfingers 7.12502
lthumb 3.35488 269.024
rfemur -11.5139 -4.6592 25.9795
rtibia 3.97569e-015
rfoot -2.72965 -10.2547
rtoes -26.2486
lfemur -40.0004 -9.36052 -0.103295
ltibia 37.6375
lfoot -16.3691 -4.65188
ltoes -32.0079
806
root -8.319 17.5701 -5.86467 -318.264 116.942 -334.416
lowerback 14.8986 1.79546 -5.74429
upperback 7.67354 2.46601 -7.91155
thorax -0.00845054 1.62197 -5.49607
lowerneck -21.6647 -4.12072 -1.07493
upperneck 44.9282 -7.72683 11.127
head 24.4764 -0.799291 4.98278
rclavicle -2.8625e-014 -6.99722e-014
rhumerus -9.81101 65.2585 -58.4633
rradius 75.5276
rwrist -43.2625
rhand -24.3184 -4.28211
rfingers 7.12502
rthumb 2.16984 -34.2508
lclavicle -2.8625e-014 -6.99722e-014
lhumerus 53.3533 -74.2161 38.9273
lradius 42.2184
lwrist -12.3194
lhand -23.5238 60.8319
lfingers 7.12502
lthumb 2.9373 269.209
rfemur -11.5469 -4.51822 25.8903
rtibia 0
rfoot -2.69197 -10.2703
rtoes -26.4022
lfemur -39.9381 -9.32426 -0.167778
ltibia 37.6185
lfoot -16.3557 -4.56783
ltoes -32.2354
807
root -8.3196 17.5717 -5.86631 -318.097 116.79 -334.266
lowerback 14.8711 1.84025 -5.85434
upperback 7.67011 2.51143 -7.89044
thorax 0.000661097 1.63982 -5.4164
lowerneck -21.7474 -4.1263 -1.16337
upperneck 44.9699 -7.65532 11.015
head 24.5304 -0.805614 4.9596
rclavicle 7.31528e-014 9.22361e-014
rhumerus -9.77906 65.5865 -58.2896
rradius 75.6573
rwrist -42.0868
rhand -24.3733 -4.23483
rfingers 7.12502
rthumb 2.11688 -34.2041
lclavicle 7.31528e-014 9.22361e-014
lhumerus 52.9879 -74.1829 39.3046
lradius 42.2978
lwrist -11.7461
lhand -24.0869 60.6739
lfingers 7.12502
lthumb 2.39347 269.36
rfemur -11.5957 -4.3546 25.8476
rtibia -2.46493e-014
rfoot -2.6187 -10.2796
rtoes -26.7323
lfemur -39.8843 -9.26407 -0.185258
ltibia 37.6
lfoot -16.3698 -4.50828
ltoes -32.1369
808
root -8.32192 17.5727 -5.86743 -317.894 116.654 -334.087
lowerback 14.8472 1.87719 -5.94036
upperback 7.65504 2.54578 -7.86304
thorax -0.00519924 1.6519 -5.34236
lowerneck -21.8209 -4.1114 -1.20195
upperneck 44.991 -7.55884 10.8599
head 24.5402 -0.798806 4.90029
rclavicle -4.77083e-014 -1.68569e-013
rhumerus -9.88677 65.7969 -58.3015
rradius 75.9099
rwrist -40.5833
rhand -24.3844 -4.29538
rfingers 7.12502
rthumb 2.10609 -34.2647
lclavicle -4.77083e-014 -1.68569e-013
lhumerus 52.1323 -74.1036 40.218
lradius 42.4038
lwrist -11.4187
lhand -24.2813 60.5992
lfingers 7.12502
lthumb 2.20568 269.432
rfemur -11.6669 -4.19188 25.828
rtibia 1.11319e-014
rfoot -2.54505 -10.2906
rtoes -26.9261
lfemur -39.8561 -9.17475 -0.192952
ltibia 37.5784
lfoot -16.3684 -4.42416
ltoes -32.2386
809
root -8.32439 17.5748 -5.86895 -317.838 116.493 -334.054
lowerback 14.8029 1.90452 -6.06138
upperback 7.65632 2.57092 -7.85627
thorax 0.0171626 1.66026 -5.26808
lowerneck -21.874 -4.07273 -1.23376
upperneck 44.9873 -7.43127 10.7168
head 24.5103 -0.778418 4.84944
rclavicle 3.81667e-014 -1.30403e-013
rhumerus -10.1947 65.8427 -58.57
rradius 76.3124
rwrist -38.4952
rhand -24.212 -4.59464
rfingers 7.12502
rthumb 2.27263 -34.5623
lclavicle 3.81667e-014 -1.30403e-013
lhumerus 50.9689 -73.9579 41.4531
lradius 42.5211
lwrist -11.4319
lhand -24.1516 60.6949
lfingers 7.12502
lthumb 2.33094 269.338
rfemur -11.7235 -4.06085 25.7298
rtibia -1.59028e-015
rfoot -2.48463 -10.2992
rtoes -27.0405
lfemur -39.8149 -9.10987 -0.284393
ltibia 37.5476
lfoot -16.3298 -4.35462
ltoes -32.2428
810
root -8.32534 17.5757 -5.87047 -317.937 116.326 -334.137
lowerback 14.7685 1.93018 -6.20686
upperback 7.68944 2.59761 -7.84927
thorax 0.0679792 1.6702 -5.17978
lowerneck -21.92 -4.04307 -1.31849
upperneck 44.996 -7.30184 10.6071
head 24.502 -0.763604 4.83359
rclavicle 3.18055e-014 -6.67916e-014
rhumerus -10.5137 65.848 -58.8279
rradius 76.8159
rwrist -36.156
rhand -24.1746 -5.18946
rfingers 7.12502
rthumb 2.30872 -35.1567
lclavicle 3.18055e-014 -6.67916e-014
lhumerus 49.5266 -73.7451 42.9823
lradius 42.6371
lwrist -11.7598
lhand -23.959 60.9115
lfingers 7.12502
lthumb 2.51696 269.124
rfemur -11.7187 -3.96709 25.5756
rtibia 0
rfoot -2.43646 -10.2959
rtoes -27.2052
lfemur -39.7201 -9.07914 -0.437583
ltibia 37.5054
lfoot -16.2814 -4.34924
ltoes -31.8135
811
root -8.3261 17.5759 -5.87116 -317.975 116.186 -334.157
lowerback 14.7661 1.96316 -6.2831
upperback 7.7086 2.63418 -7.82291
thorax 0.0879232 1.68546 -5.11314
lowerneck -21.9769 -4.04006 -1.44098
upperneck 45.0293 -7.18449 10.4739
head 24.5267 -0.762912 4.81345
rclavicle 0 -3.81667e-014
rhumerus -10.8327 65.8265 -59.0463
rradius 77.2619
rwrist -33.8974
rhand -23.9978 -5.67691
rfingers 7.12502
rthumb 2.47948 -35.6422
lclavicle 0 -3.81667e-014
lhumerus 48.0105 -73.5401 44.6359
lradius 42.6962
lwrist -12.0856
lhand -23.8183 60.9858
lfingers 7.12502
lthumb 2.65283 269.051
rfemur -11.713 -3.87326 25.4671
rtibia 1.82882e-014
rfoot -2.42075 -10.2932
rtoes -27.2683
lfemur -39.6374 -9.02904 -0.549146
ltibia 37.4601
lfoot -16.297 -4.34899
ltoes -31.6173
